<svg xmlns="http://www.w3.org/2000/svg" viewBox="0 0 720 220" role="img" aria-label="Auleón — Logo horizontal">
  <title>Auleón</title>
  <desc>Logotipo horizontal de Auleón con mascota león minimalista a la izquierda y tipografía a la derecha</desc>

  <g transform="translate(40, 30)">
    <circle cx="80" cy="80" r="78" fill="#F4A442"/>

    <g transform="translate(80, 80)">
      <path d="M -78 0 L -100 -22 L -88 -30 L -78 -14 Z" fill="#F4A442"/>
      <path d="M -55 -55 L -75 -78 L -62 -85 L -50 -68 Z" fill="#F4A442"/>
      <path d="M 0 -78 L 0 -108 L 14 -100 L 8 -78 Z" fill="#F4A442"/>
      <path d="M 55 -55 L 75 -78 L 62 -85 L 50 -68 Z" fill="#F4A442"/>
      <path d="M 78 0 L 100 -22 L 88 -30 L 78 -14 Z" fill="#F4A442"/>
      <path d="M 78 0 L 100 22 L 88 30 L 78 14 Z" fill="#F4A442"/>
      <path d="M 55 55 L 75 78 L 62 85 L 50 68 Z" fill="#F4A442"/>
      <path d="M 0 78 L 0 108 L -14 100 L -8 78 Z" fill="#F4A442"/>
      <path d="M -55 55 L -75 78 L -62 85 L -50 68 Z" fill="#F4A442"/>
      <path d="M -78 0 L -100 22 L -88 30 L -78 14 Z" fill="#F4A442"/>
    </g>

    <circle cx="80" cy="80" r="54" fill="#1F2121"/>

    <ellipse cx="62" cy="68" rx="6" ry="8" fill="#2FDD69"/>
    <ellipse cx="98" cy="68" rx="6" ry="8" fill="#2FDD69"/>

    <path d="M 70 92 L 80 100 L 90 92 L 80 106 Z" fill="#F4A442"/>

    <path d="M 80 100 L 80 114" stroke="#FAF7F0" stroke-width="1.5" stroke-linecap="round" fill="none"/>
    <path d="M 80 114 L 72 118" stroke="#FAF7F0" stroke-width="1.5" stroke-linecap="round" fill="none"/>
    <path d="M 80 114 L 88 118" stroke="#FAF7F0" stroke-width="1.5" stroke-linecap="round" fill="none"/>

    <line x1="50" y1="98" x2="36" y2="96" stroke="#FAF7F0" stroke-width="1.2" stroke-linecap="round"/>
    <line x1="50" y1="104" x2="36" y2="106" stroke="#FAF7F0" stroke-width="1.2" stroke-linecap="round"/>
    <line x1="110" y1="98" x2="124" y2="96" stroke="#FAF7F0" stroke-width="1.2" stroke-linecap="round"/>
    <line x1="110" y1="104" x2="124" y2="106" stroke="#FAF7F0" stroke-width="1.2" stroke-linecap="round"/>
  </g>

  <g transform="translate(240, 0)">
    <text x="0" y="135" font-family="Helvetica, Arial Black, sans-serif" font-weight="900" font-size="92" fill="#1F2121" letter-spacing="-2">Aule</text>
    <text x="195" y="135" font-family="Helvetica, Arial Black, sans-serif" font-weight="900" font-size="92" fill="#2FDD69" letter-spacing="-2">ón</text>

    <line x1="0" y1="155" x2="360" y2="155" stroke="#F4A442" stroke-width="2.5"/>

    <text x="0" y="182" font-family="Helvetica, Arial, sans-serif" font-style="italic" font-weight="400" font-size="18" fill="#6B6F6F">El delegado, sin el desgaste.</text>
  </g>
</svg>
